<svg width="256" height="256" viewBox="0 0 256 256" fill="none" xmlns="http://www.w3.org/2000/svg">
<rect width="256" height="256" rx="128" fill="black"/>
<path d="M87.832 164L96.92 135.376H113.32L104.136 164H87.832ZM95.368 135.376L103.864 107.728H120.36L111.768 135.376H95.368ZM129.892 164L144.436 107.728C144.66 107.056 145.028 106.528 145.54 106.144C146.052 105.76 146.66 105.568 147.364 105.568H166.18C171.284 105.568 175.156 106.752 177.796 109.12C180.468 111.488 181.804 114.736 181.804 118.864C181.804 120.064 181.676 121.296 181.42 122.56C180.812 125.328 179.676 127.792 178.012 129.952C176.38 132.08 174.38 133.76 172.012 134.992L172.108 135.376C173.708 136.16 174.94 137.328 175.804 138.88C176.668 140.4 177.1 142.192 177.1 144.256C177.1 145.2 177.004 146.16 176.812 147.136C176.316 149.664 175.38 151.904 174.004 153.856C172.628 155.808 170.9 157.376 168.82 158.56C166.772 159.744 164.516 160.624 162.052 161.2C159.62 161.776 157.124 162.064 154.564 162.064C151.028 162.064 148.116 161.392 145.828 160.048C143.54 158.704 142.396 156.544 142.396 153.568C142.396 152.112 142.652 150.496 143.164 148.72L146.388 136.048L146.58 135.376H139.076L134.468 152.624C134.244 153.328 133.876 153.888 133.364 154.304C132.884 154.688 132.292 154.88 131.588 154.88H129.892V164ZM148.82 135.376L152.14 122.608C152.364 121.872 152.476 121.216 152.476 120.64C152.476 118.656 151.196 117.664 148.636 117.664H148.06L146.148 125.776C146.02 126.16 145.9 126.512 145.788 126.832C145.676 127.152 145.62 127.456 145.62 127.744C145.62 128.192 145.788 128.56 146.124 128.848C146.46 129.136 146.916 129.28 147.492 129.28C148.612 129.28 149.46 128.896 150.036 128.128C150.612 127.36 151.068 126.4 151.404 125.248L151.596 124.576H159.196L159.1 125.056C158.764 126.608 158.156 128.128 157.276 129.616C156.428 131.072 155.34 132.352 154.012 133.456C152.684 134.528 151.148 135.376 149.396 136C147.644 136.624 145.74 136.944 143.692 136.976L143.02 139.648C142.828 140.288 142.732 140.896 142.732 141.472C142.732 142.624 143.02 143.488 143.596 144.064C144.172 144.64 145.084 144.928 146.332 144.928C147.74 144.928 148.884 144.64 149.764 144.064C150.676 143.456 151.404 142.592 151.948 141.472C152.492 140.352 152.94 139.008 153.308 137.44L153.5 136.768H161.1L160.908 137.536C160.332 140.016 159.356 142.208 157.98 144.112C156.604 145.984 154.748 147.456 152.428 148.528C150.108 149.568 147.26 150.088 143.884 150.088C140.444 150.088 137.788 149.344 135.916 147.856C134.044 146.368 133.108 144.128 133.108 141.136C133.108 140.4 133.172 139.632 133.3 138.832L133.684 137.056L132.628 136.864C131.7 136.704 131.028 136.272 130.612 135.568L148.82 135.376Z" fill="url(#paint0_linear_1_2)"/>
<path d="M167 88L142 189" stroke="url(#paint1_linear_1_2)" stroke-width="8" stroke-linecap="round"/>
<path d="M79 88L104 189" stroke="url(#paint2_linear_1_2)" stroke-width="8" stroke-linecap="round"/>
<defs>
<linearGradient id="paint0_linear_1_2" x1="87.832" y1="134.784" x2="181.804" y2="134.784" gradientUnits="userSpaceOnUse">
<stop stop-color="#FF00FF"/>
<stop offset="0.5" stop-color="#FF00FF"/>
<stop offset="1" stop-color="#00FFFF"/>
</linearGradient>
<linearGradient id="paint1_linear_1_2" x1="142" y1="138.5" x2="167" y2="138.5" gradientUnits="userSpaceOnUse">
<stop stop-color="#00FFFF"/>
<stop offset="1" stop-color="#FF00FF"/>
</linearGradient>
<linearGradient id="paint2_linear_1_2" x1="104" y1="138.5" x2="79" y2="138.5" gradientUnits="userSpaceOnUse">
<stop stop-color="#00FFFF"/>
<stop offset="1" stop-color="#FF00FF"/>
</linearGradient>
</defs>
</svg>